<svg width="352" height="68" viewBox="0 0 352 68" fill="none" xmlns="http://www.w3.org/2000/svg">
<path d="M36.5906 46.4667C33.4005 46.4667 30.7096 45.9113 28.5179 44.8005C26.2956 43.702 24.8272 41.993 24.1128 39.6738C23.3985 37.3545 23.6962 34.4311 25.006 30.9034C26.0485 28.0959 27.6006 25.5813 29.6625 23.3597C31.7243 21.1381 34.167 19.3987 36.9906 18.1414C39.8318 16.8719 42.8539 16.2372 46.0571 16.2372C47.4112 16.2372 48.647 16.4508 49.7644 16.878C50.8949 17.3053 51.6793 17.9278 52.1179 18.7456L53.483 16.8048H60.2408L56.2501 27.5527H50.215C50.3824 26.0146 50.0405 24.8489 49.1893 24.0555C48.338 23.2621 47.2874 22.8653 46.0374 22.8653C43.9541 22.8653 42.0418 23.5794 40.3006 25.0076C38.5594 26.4358 37.2242 28.401 36.2951 30.9034C35.3569 33.4301 35.2194 35.4137 35.8825 36.8541C36.5501 38.2822 37.9777 38.9963 40.1652 38.9963C40.686 38.9963 41.264 38.9475 41.8992 38.8498C42.3691 38.7766 42.8221 38.679 43.258 38.5569C43.6985 38.4226 43.9884 38.3433 44.1276 38.3189L45.0862 35.7372H41.3362L43.3554 30.2991H55.8749L51.014 43.3907C48.6371 44.3916 46.2054 45.1545 43.7189 45.6794C41.2323 46.2043 38.8562 46.4667 36.5906 46.4667ZM72.9699 39.4907L70.5768 45.9358H54.3464L56.7394 39.4907H59.8644L65.8947 23.2498H62.7697L65.1627 16.8048H81.3932L79.0001 23.2498H75.8947L69.8644 39.4907H72.9699ZM87.8211 46.4667C86.7534 46.4667 85.8691 46.3935 85.1683 46.247C84.4675 46.1005 83.8527 45.8625 83.3241 45.5329C82.8084 45.2034 82.2834 44.7761 81.7492 44.2513L80.4401 45.9358H74.1315L77.4424 37.0189H83.7119C83.7348 38.0442 84.0836 38.7705 84.7584 39.1977C85.4506 39.6128 86.4087 39.8203 87.6327 39.8203C88.3879 39.8203 89.0845 39.6799 89.7226 39.3991C90.3653 39.1062 90.775 38.7217 90.9517 38.2456C91.1738 37.6475 91.0658 37.202 90.6277 36.909C90.1941 36.6038 89.5301 36.3231 88.6357 36.0667C87.4906 35.7494 86.4694 35.4137 85.5721 35.0597C84.688 34.7057 83.9125 34.3395 83.2457 33.9611C81.9121 33.2043 81.0089 32.1301 80.536 30.7386C80.0631 29.347 80.2549 27.4977 81.1115 25.1907C81.7687 23.4207 82.759 21.8583 84.0824 20.5034C85.3882 19.1606 86.9346 18.117 88.7215 17.3724C90.5259 16.6156 92.4568 16.2372 94.5141 16.2372C97.0271 16.2372 98.7341 16.9879 99.6349 18.4893L101.27 16.7682H106.876L103.633 25.502H97.6366C97.4846 24.4034 97.1494 23.6405 96.6309 23.2132C96.1125 22.786 95.2608 22.5724 94.0759 22.5724C93.1774 22.5724 92.4242 22.725 91.8161 23.0301C91.2125 23.3231 90.8133 23.732 90.6184 24.2569C90.4008 24.8428 90.5935 25.2883 91.1963 25.5935C91.7816 25.9109 92.6754 26.2038 93.8778 26.4724C95.9752 26.9606 97.7124 27.5771 99.0896 28.3217C100.428 29.0663 101.325 30.1221 101.781 31.4893C102.254 32.8442 102.092 34.5959 101.294 36.7442C100.619 38.563 99.6035 40.2109 98.2478 41.6879C96.8791 43.1649 95.2809 44.3306 93.4532 45.1851C91.6386 46.0395 89.7612 46.4667 87.8211 46.4667ZM125.505 39.3442L123.057 45.9358H105.655L108.102 39.3442H111.306L117.281 23.2498H114.527L111.825 28.2667H106.337L110.592 16.8048H139.831L135.575 28.2667H130.106L131.129 23.2498H128.277L122.302 39.3442H125.505ZM151.642 39.4907L149.249 45.9358H133.018L135.411 39.4907H138.536L144.567 23.2498H141.442L143.835 16.8048H160.065L157.672 23.2498H154.567L148.536 39.4907H151.642ZM187.927 39.3442L185.479 45.9358H168.077L170.524 39.3442H173.727L179.703 23.2498H176.949L174.247 28.2667H168.758L173.014 16.8048H202.253L197.997 28.2667H192.528L193.551 23.2498H190.699L184.723 39.3442H187.927ZM211.671 45.9358H195.44L197.833 39.4907H200.958L206.988 23.2498H203.863L206.256 16.8048H226.217C229.447 16.8048 231.59 17.4151 232.647 18.6358C233.717 19.8564 233.726 21.8827 232.675 24.7146C231.972 26.6067 230.864 28.0653 229.351 29.0907C227.837 30.116 225.973 30.8057 223.759 31.1597C225.529 31.4405 226.632 32.0996 227.067 33.1372C227.515 34.1747 227.452 35.4686 226.876 37.0189L225.999 39.3808H230.354L227.921 45.9358H221.632C220.29 45.9358 219.226 45.893 218.437 45.8076C217.653 45.7099 217.083 45.4902 216.729 45.1484C216.391 44.7944 216.205 44.2451 216.169 43.5005C216.117 42.3775 216.578 40.5038 217.553 37.8794C218.11 36.378 218.262 35.2672 218.009 34.547C217.76 33.8146 216.945 33.4484 215.565 33.4484H213.202L210.958 39.4907H214.064L211.671 45.9358ZM216.988 23.2498L214.745 29.2921H217.421C218.84 29.2921 219.983 29.0541 220.85 28.578C221.717 28.102 222.372 27.2658 222.816 26.0696C223.143 25.1907 223.041 24.501 222.51 24.0006C221.993 23.5001 221.175 23.2498 220.055 23.2498H216.988ZM244.415 39.4907L242.022 45.9358H228.311L230.704 39.4907H233.79L245.172 23.2498H241.09L243.483 16.8048H262.838L261.349 39.4907H264.415L262.022 45.9358H244.542L246.935 39.4907H249.474L249.79 36.378H242.739L240.704 39.4907H244.415ZM250.497 31.947L251.543 23.0301L245.38 31.947H250.497ZM278.518 39.3808L276.085 45.9358H263.643L266.077 39.3808H269.241L275.244 23.2132H272.158L274.551 16.7682H288.907L292.202 34.0893L296.227 23.2498H293.102L295.495 16.8048H307.936L305.543 23.2498H302.457L294.034 45.9358H282.198L278.935 29.8414L275.393 39.3808H278.518ZM314.149 46.4667C313.081 46.4667 312.197 46.3935 311.496 46.247C310.796 46.1005 310.181 45.8625 309.652 45.5329C309.137 45.2034 308.612 44.7761 308.077 44.2513L306.768 45.9358H300.46L303.77 37.0189H310.04C310.063 38.0442 310.412 38.7705 311.086 39.1977C311.779 39.6128 312.737 39.8203 313.961 39.8203C314.716 39.8203 315.413 39.6799 316.051 39.3991C316.693 39.1062 317.103 38.7217 317.28 38.2456C317.502 37.6475 317.394 37.202 316.956 36.909C316.522 36.6038 315.858 36.3231 314.964 36.0667C313.819 35.7494 312.797 35.4137 311.9 35.0597C311.016 34.7057 310.241 34.3395 309.574 33.9611C308.24 33.2043 307.337 32.1301 306.864 30.7386C306.391 29.347 306.583 27.4977 307.44 25.1907C308.097 23.4207 309.087 21.8583 310.411 20.5034C311.716 19.1606 313.263 18.117 315.05 17.3724C316.854 16.6156 318.785 16.2372 320.842 16.2372C323.355 16.2372 325.062 16.9879 325.963 18.4893L327.598 16.7682H333.204L329.961 25.502H323.965C323.813 24.4034 323.477 23.6405 322.959 23.2132C322.441 22.786 321.589 22.5724 320.404 22.5724C319.506 22.5724 318.752 22.725 318.144 23.0301C317.541 23.3231 317.141 23.732 316.947 24.2569C316.729 24.8428 316.922 25.2883 317.524 25.5935C318.11 25.9109 319.004 26.2038 320.206 26.4724C322.303 26.9606 324.041 27.5771 325.418 28.3217C326.756 29.0663 327.653 30.1221 328.109 31.4893C328.582 32.8442 328.42 34.5959 327.622 36.7442C326.947 38.563 325.932 40.2109 324.576 41.6879C323.207 43.1649 321.609 44.3306 319.781 45.1851C317.967 46.0395 316.089 46.4667 314.149 46.4667Z" fill="white" fill-opacity="0.01"/>
<path d="M28.5179 44.8005L29.2489 43.9472L29.2428 43.9442L28.5179 44.8005ZM24.1128 39.6738L23.0824 40.1774L24.1128 39.6738ZM29.6625 23.3597L28.937 22.9259L29.6625 23.3597ZM36.9906 18.1414L37.1827 18.9562L37.1846 18.9553L36.9906 18.1414ZM49.7644 16.878L49.1003 17.7609L49.1029 17.7619L49.7644 16.878ZM52.1179 18.7456L51.1307 19.3531L51.8259 20.6497L52.9692 19.0243L52.1179 18.7456ZM53.483 16.8048L53.8311 15.8673H53.0951L52.6317 16.5261L53.483 16.8048ZM60.2408 16.8048H61.2408L61.5889 15.8673H60.5889L60.2408 16.8048ZM56.2501 27.5527L55.9021 28.4901H56.9021L57.2501 27.5527H56.2501ZM50.215 27.5527L49.1608 27.7766L49.0831 28.4901H49.8669L50.215 27.5527ZM35.8825 36.8541L34.8798 37.4305L34.8812 37.4335L35.8825 36.8541ZM41.8992 38.8498L41.7276 39.7734L41.7302 39.773L41.8992 38.8498ZM43.258 38.5569L43.244 39.4462L43.2597 39.4418L43.2755 39.437L43.258 38.5569ZM44.1276 38.3189L43.9824 39.2381L44.8423 39.0874L45.1276 38.3189H44.1276ZM45.0862 35.7372H46.0862L46.4343 34.7997H45.4343L45.0862 35.7372ZM41.3362 35.7372H40.3362L39.9881 36.6746H40.9881L41.3362 35.7372ZM43.3554 30.2991L43.7035 29.3617H42.7035L42.3554 30.2991H43.3554ZM55.8749 30.2991H56.8749L57.223 29.3617H56.223L55.8749 30.2991ZM51.014 43.3907L51.1768 44.2182L51.805 43.9536L52.014 43.3907H51.014ZM36.9387 45.5293C33.8749 45.5293 31.3191 44.9965 29.2488 43.9473L27.7869 45.6538C30.1001 46.8262 32.9261 47.4042 36.2425 47.4042L36.9387 45.5293ZM29.2428 43.9442C27.1749 42.922 25.8108 41.3373 25.1433 39.1702L23.0824 40.1774C23.8436 42.6487 25.4162 44.4819 27.7929 45.6569L29.2428 43.9442ZM25.1433 39.1702C24.4867 37.0386 24.7439 34.3026 26.006 30.9034H24.006C22.6485 34.5596 22.3102 37.6705 23.0824 40.1774L25.1433 39.1702ZM26.006 30.9034C26.9992 28.2285 28.4646 25.8658 30.3879 23.7935L28.937 22.9259C26.7366 25.2968 25.0977 27.9632 24.006 30.9034H26.006ZM30.3879 23.7935C32.2993 21.734 34.5561 20.1257 37.1827 18.9562L36.7986 17.3266C33.778 18.6716 31.1493 20.5423 28.937 22.9259L30.3879 23.7935ZM37.1846 18.9553C39.8153 17.7799 42.6495 17.1746 45.709 17.1746L46.4051 15.2997C43.0584 15.2997 39.8483 15.964 36.7967 17.3275L37.1846 18.9553ZM45.709 17.1746C46.9485 17.1746 48.0773 17.3698 49.1003 17.7609L50.4286 15.9952C49.2167 15.5318 47.874 15.2997 46.4051 15.2997L45.709 17.1746ZM49.1029 17.7619C50.1159 18.1447 50.7717 18.6836 51.1307 19.3531L53.1051 18.1382C52.587 17.172 51.6738 16.4658 50.4259 15.9942L49.1029 17.7619ZM52.9692 19.0243L54.3344 17.0834L52.6317 16.5261L51.2665 18.467L52.9692 19.0243ZM53.1349 17.7422H59.8928L60.5889 15.8673H53.8311L53.1349 17.7422ZM59.2408 16.8048L55.2501 27.5527H57.2501L61.2408 16.8048H59.2408ZM56.5982 26.6152H50.5631L49.8669 28.4901H55.9021L56.5982 26.6152ZM51.2692 27.3287C51.4552 25.6195 51.0791 24.2481 50.0634 23.3014L48.3152 24.8095C49.002 25.4497 49.3096 26.4098 49.1608 27.7766L51.2692 27.3287ZM50.0634 23.3014C49.103 22.4062 47.8785 21.9279 46.3855 21.9279L45.6893 23.8028C46.6963 23.8028 47.5731 24.1179 48.3152 24.8095L50.0634 23.3014ZM46.3855 21.9279C44.022 21.9279 41.7698 22.7548 39.7344 24.4243L40.8668 25.5909C42.3139 24.4041 43.8861 23.8028 45.6893 23.8028L46.3855 21.9279ZM39.7344 24.4243C37.7273 26.0704 36.2739 28.2671 35.2951 30.9034H37.2951C38.1745 28.5349 39.3914 26.8011 40.8668 25.5909L39.7344 24.4243ZM35.2951 30.9034C34.3086 33.5601 34.1165 35.7725 34.8798 37.4305L36.8851 36.2777C36.3222 35.0549 36.4052 33.3001 37.2951 30.9034H35.2951ZM34.8812 37.4335C35.6691 39.1188 37.3677 39.9338 39.8171 39.9338L40.5132 38.0589C38.5876 38.0589 37.4311 37.4456 36.8837 36.2746L34.8812 37.4335ZM39.8171 39.9338C40.4039 39.9338 41.0421 39.8788 41.7276 39.7734L42.0708 37.9262C41.486 38.0162 40.9681 38.0589 40.5132 38.0589L39.8171 39.9338ZM41.7302 39.773C42.2468 39.6925 42.7517 39.5841 43.244 39.4462L43.272 37.6675C42.8925 37.7738 42.4915 37.8607 42.0682 37.9266L41.7302 39.773ZM43.2755 39.437C43.4885 39.3721 43.6569 39.323 43.7838 39.2882C43.8471 39.2709 43.8961 39.2583 43.9327 39.2494C43.9714 39.2401 43.9855 39.2376 43.9824 39.2381L44.2729 37.3996C44.0383 37.4407 43.6646 37.5475 43.2406 37.6767L43.2755 39.437ZM45.1276 38.3189L46.0862 35.7372H44.0862L43.1276 38.3189H45.1276ZM45.4343 34.7997H41.6843L40.9881 36.6746H44.7381L45.4343 34.7997ZM42.3362 35.7372L44.3554 30.2991H42.3554L40.3362 35.7372H42.3362ZM43.0073 31.2366H55.5268L56.223 29.3617H43.7035L43.0073 31.2366ZM54.8749 30.2991L50.014 43.3907H52.014L56.8749 30.2991H54.8749ZM50.8513 42.5632C48.5649 43.5261 46.2218 44.2617 43.8197 44.7687L43.6181 46.5901C46.1891 46.0474 48.7094 45.2572 51.1768 44.2182L50.8513 42.5632ZM43.8197 44.7687C41.4139 45.2766 39.1211 45.5293 36.9387 45.5293L36.2425 47.4042C38.5914 47.4042 41.0507 47.132 43.6181 46.5901L43.8197 44.7687ZM72.9699 39.4907H73.9699L74.318 38.5532H73.318L72.9699 39.4907ZM70.5768 45.9358L70.2287 46.8732H71.2287L71.5768 45.9358H70.5768ZM54.3464 45.9358H53.3464L52.9983 46.8732H53.9983L54.3464 45.9358ZM56.7394 39.4907L57.0875 38.5532H56.0875L55.7394 39.4907H56.7394ZM59.8644 39.4907L59.5163 40.4282H60.5163L60.8644 39.4907H59.8644ZM65.8947 23.2498H66.8947L67.2427 22.3124H66.2427L65.8947 23.2498ZM62.7697 23.2498H61.7697L61.4216 24.1873H62.4216L62.7697 23.2498ZM65.1627 16.8048L65.5108 15.8673H64.5108L64.1627 16.8048H65.1627ZM81.3932 16.8048H82.3932L82.7413 15.8673H81.7413L81.3932 16.8048ZM79.0001 23.2498L78.652 24.1873H79.652L80.0001 23.2498H79.0001ZM75.8947 23.2498L76.2427 22.3124H75.2427L74.8947 23.2498H75.8947ZM69.8644 39.4907H68.8644L68.5163 40.4282H69.5163L69.8644 39.4907ZM71.9699 39.4907L69.5768 45.9358H71.5768L73.9699 39.4907H71.9699ZM70.9249 44.9983H54.6944L53.9983 46.8732H70.2287L70.9249 44.9983ZM55.3464 45.9358L57.7394 39.4907H55.7394L53.3464 45.9358H55.3464ZM56.3913 40.4282H59.5163L60.2125 38.5532H57.0875L56.3913 40.4282ZM60.8644 39.4907L66.8947 23.2498H64.8947L58.8644 39.4907H60.8644ZM66.2427 22.3124H63.1177L62.4216 24.1873H65.5466L66.2427 22.3124ZM63.7697 23.2498L66.1627 16.8048H64.1627L61.7697 23.2498H63.7697ZM64.8146 17.7422H81.0451L81.7413 15.8673H65.5108L64.8146 17.7422ZM80.3932 16.8048L78.0001 23.2498H80.0001L82.3932 16.8048H80.3932ZM79.3482 22.3124H76.2427L75.5466 24.1873H78.652L79.3482 22.3124ZM74.8947 23.2498L68.8644 39.4907H70.8644L76.8947 23.2498H74.8947ZM69.5163 40.4282H72.6218L73.318 38.5532H70.2125L69.5163 40.4282ZM83.3241 45.5329L82.5366 46.354L82.5426 46.3578L83.3241 45.5329ZM81.7492 44.2513L82.6343 43.5077L81.8533 42.7405L80.9383 43.9179L81.7492 44.2513ZM80.4401 45.9358L80.092 46.8732H80.7815L81.251 46.2691L80.4401 45.9358ZM74.1315 45.9358H73.1315L72.7834 46.8732H73.7834L74.1315 45.9358ZM77.4424 37.0189L77.7905 36.0814H76.7905L76.4424 37.0189H77.4424ZM83.7119 37.0189L84.7706 36.6943L84.7569 36.0814H84.06L83.7119 37.0189ZM84.7584 39.1977L83.9731 40.0202L83.9797 40.0244L83.9864 40.0284L84.7584 39.1977ZM89.7226 39.3991L89.9083 40.2167L89.9179 40.2125L89.9274 40.2082L89.7226 39.3991ZM90.6277 36.909L89.8171 37.7146L89.8232 37.7188L89.8293 37.7229L90.6277 36.909ZM88.6357 36.0667L89.2376 35.1631L89.2308 35.1612L88.6357 36.0667ZM85.5721 35.0597L84.8974 35.9384L84.9008 35.9397L85.5721 35.0597ZM83.2457 33.9611L82.4871 34.7996L83.2457 33.9611ZM84.0824 20.5034L84.7803 20.9661L84.7826 20.9637L84.0824 20.5034ZM88.7215 17.3724L88.8788 18.2021L88.8822 18.2007L88.7215 17.3724ZM99.6349 18.4893L98.6612 19.1205L99.2464 20.0958L100.348 18.9364L99.6349 18.4893ZM101.27 16.7682L101.618 15.8307H101.023L100.557 16.3211L101.27 16.7682ZM106.876 16.7682H107.876L108.224 15.8307H107.224L106.876 16.7682ZM103.633 25.502L103.285 26.4394H104.285L104.633 25.502H103.633ZM97.6366 25.502L96.5842 25.9061L96.658 26.4394H97.2885L97.6366 25.502ZM91.8161 23.0301L92.0558 23.8227L92.0654 23.8181L92.0749 23.8133L91.8161 23.0301ZM91.1963 25.5935L91.9438 24.7489L91.9355 24.7444L91.927 24.7401L91.1963 25.5935ZM93.8778 26.4724L94.44 25.5585L94.4326 25.5568L93.8778 26.4724ZM99.0896 28.3217L99.8434 27.4805L99.8363 27.4766L99.0896 28.3217ZM101.781 31.4893L100.754 32.0061L100.757 32.0141L101.781 31.4893ZM98.2478 41.6879L98.9741 42.1208L98.9791 42.1154L98.2478 41.6879ZM93.4532 45.1851L93.2346 44.3824L93.2306 44.3843L93.4532 45.1851ZM88.1692 45.5293C87.1456 45.5293 86.3322 45.4587 85.7118 45.329L84.6248 47.165C85.406 47.3283 86.3611 47.4042 87.473 47.4042L88.1692 45.5293ZM85.7118 45.329C85.0955 45.2002 84.5618 44.9925 84.1055 44.7081L82.5426 46.3578C83.1436 46.7325 83.8394 47.0009 84.6248 47.165L85.7118 45.329ZM84.1115 44.7119C83.6394 44.4101 83.1465 44.0109 82.6343 43.5077L80.8641 44.9948C81.4204 45.5414 81.9774 45.9966 82.5366 46.354L84.1115 44.7119ZM80.9383 43.9179L79.6292 45.6024L81.251 46.2691L82.56 44.5846L80.9383 43.9179ZM80.7882 44.9983H74.4796L73.7834 46.8732H80.092L80.7882 44.9983ZM75.1315 45.9358L78.4424 37.0189H76.4424L73.1315 45.9358H75.1315ZM77.0943 37.9563H83.3638L84.06 36.0814H77.7905L77.0943 37.9563ZM82.6532 37.3434C82.6798 38.5309 83.0902 39.4611 83.9731 40.0202L85.5436 38.3752C85.0771 38.0799 84.7899 37.5575 84.7706 36.6943L82.6532 37.3434ZM83.9864 40.0284C84.824 40.5305 85.9434 40.7577 87.2846 40.7577L87.9808 38.8828C86.8741 38.8828 86.0772 38.695 85.5303 38.367L83.9864 40.0284ZM87.2846 40.7577C88.1715 40.7577 89.0544 40.5925 89.9083 40.2167L89.537 38.5815C89.1147 38.7673 88.6043 38.8828 87.9808 38.8828L87.2846 40.7577ZM89.9274 40.2082C90.8447 39.79 91.6227 39.1317 91.9517 38.2456H89.9517C89.9272 38.3116 89.8859 38.4223 89.5179 38.5901L89.9274 40.2082ZM91.9517 38.2456C92.2967 37.3165 92.1177 36.5576 91.426 36.0951L89.8293 37.7229C90.0138 37.8463 90.0509 37.9785 89.9517 38.2456H91.9517ZM91.4383 36.1034C90.9184 35.7375 90.1684 35.4299 89.2376 35.1631L88.0339 36.9703C88.8918 37.2162 89.4698 37.4701 89.8171 37.7146L91.4383 36.1034ZM89.2308 35.1612C88.1071 34.8498 87.112 34.5223 86.2435 34.1797L84.9008 35.9397C85.8267 36.3051 86.874 36.6489 88.0406 36.9722L89.2308 35.1612ZM86.2469 34.181C85.3864 33.8365 84.6399 33.4833 84.0042 33.1226L82.4871 34.7996C83.1851 35.1957 83.9895 35.5749 84.8974 35.9384L86.2469 34.181ZM84.0042 33.1226C82.7976 32.4379 81.9873 31.4727 81.5611 30.2186L79.5108 31.2586C80.0304 32.7876 81.0266 33.9707 82.4871 34.7996L84.0042 33.1226ZM81.5611 30.2186C81.1569 29.0292 81.2984 27.3807 82.1115 25.1907H80.1115C79.2114 27.6148 78.9692 29.6648 79.5108 31.2586L81.5611 30.2186ZM82.1115 25.1907C82.7168 23.5605 83.6125 22.1617 84.7803 20.9661L83.3845 20.0406C81.9055 21.5549 80.8206 23.281 80.1115 25.1907H82.1115ZM84.7826 20.9637C85.9296 19.7843 87.2854 18.8661 88.8788 18.2021L88.5641 16.5427C86.5838 17.3679 84.8469 18.537 83.3822 20.0431L84.7826 20.9637ZM88.8822 18.2007C90.4857 17.5282 92.2405 17.1746 94.166 17.1746L94.8622 15.2997C92.6731 15.2997 90.5662 15.703 88.5608 16.544L88.8822 18.2007ZM94.166 17.1746C96.4471 17.1746 97.8965 17.846 98.6612 19.1205L100.609 17.8581C99.5716 16.1297 97.6071 15.2997 94.8622 15.2997L94.166 17.1746ZM100.348 18.9364L101.983 17.2152L100.557 16.3211L98.9219 18.0422L100.348 18.9364ZM100.922 17.7056H106.527L107.224 15.8307H101.618L100.922 17.7056ZM105.876 16.7682L102.633 25.502H104.633L107.876 16.7682H105.876ZM103.981 24.5645H97.9847L97.2885 26.4394H103.285L103.981 24.5645ZM98.6889 25.0978C98.5272 23.9291 98.1583 22.9961 97.4781 22.4355L95.7838 23.9909C96.1404 24.2848 96.4419 24.8777 96.5842 25.9061L98.6889 25.0978ZM97.4781 22.4355C96.7881 21.867 95.7223 21.6349 94.424 21.6349L93.7278 23.5098C94.7992 23.5098 95.4368 23.705 95.7838 23.9909L97.4781 22.4355ZM94.424 21.6349C93.4244 21.6349 92.4447 21.8016 91.5573 22.247L92.0749 23.8133C92.4037 23.6483 92.9305 23.5098 93.7278 23.5098L94.424 21.6349ZM91.5764 22.2375C90.6383 22.6928 89.9391 23.3932 89.6184 24.2569H91.6184C91.6875 24.0709 91.7867 23.9533 92.0558 23.8227L91.5764 22.2375ZM89.6184 24.2569C89.4381 24.7424 89.4213 25.2007 89.5916 25.5946C89.7566 25.9762 90.076 26.2497 90.4656 26.4469L91.927 24.7401C91.7138 24.6322 91.6355 24.5303 91.6079 24.4664C91.5855 24.4147 91.5811 24.3573 91.6184 24.2569H89.6184ZM90.4489 26.4382C91.119 26.8015 92.0925 27.1131 93.323 27.388L94.4326 25.5568C93.2584 25.2946 92.4443 25.0202 91.9438 24.7489L90.4489 26.4382ZM93.3157 27.3863C95.3635 27.863 97.0344 28.4592 98.3429 29.1667L99.8363 27.4766C98.3905 26.6949 96.5869 26.0583 94.44 25.5585L93.3157 27.3863ZM98.3359 29.1629C99.546 29.8362 100.346 30.7821 100.754 32.0061L102.807 30.9725C102.303 29.4622 101.309 28.2963 99.8434 27.4805L98.3359 29.1629ZM100.757 32.0141C101.162 33.1722 101.044 34.725 100.294 36.7442H102.294C103.14 34.4667 103.346 32.5163 102.804 30.9644L100.757 32.0141ZM100.294 36.7442C99.6688 38.4288 98.7395 39.928 97.5166 41.2604L98.9791 42.1154C100.468 40.4937 101.569 38.6971 102.294 36.7442H100.294ZM97.5216 41.2549C96.2934 42.5803 94.8705 43.6176 93.2346 44.3824L93.6719 45.9877C95.6913 45.0436 97.4648 43.7495 98.9741 42.1208L97.5216 41.2549ZM93.2306 44.3843C91.6257 45.14 89.946 45.5293 88.1692 45.5293L87.473 47.4042C89.5763 47.4042 91.6515 46.939 93.6758 45.9858L93.2306 44.3843ZM125.505 39.3442H126.505L126.853 38.4067H125.853L125.505 39.3442ZM123.057 45.9358L122.709 46.8732H123.709L124.057 45.9358H123.057ZM105.655 45.9358H104.655L104.307 46.8732H105.307L105.655 45.9358ZM108.102 39.3442L108.45 38.4067H107.45L107.102 39.3442H108.102ZM111.306 39.3442L110.957 40.2817H111.957L112.306 39.3442H111.306ZM117.281 23.2498H118.281L118.629 22.3124H117.629L117.281 23.2498ZM114.527 23.2498L114.876 22.3124H114.02L113.594 23.1045L114.527 23.2498ZM111.825 28.2667L111.477 29.2042H112.332L112.759 28.4121L111.825 28.2667ZM106.337 28.2667H105.337L104.988 29.2042H105.988L106.337 28.2667ZM110.592 16.8048L110.94 15.8673H109.94L109.592 16.8048H110.592ZM139.831 16.8048H140.831L141.179 15.8673H140.179L139.831 16.8048ZM135.575 28.2667L135.227 29.2042H136.227L136.575 28.2667H135.575ZM130.106 28.2667L129.064 28.4121L128.903 29.2042H129.758L130.106 28.2667ZM131.129 23.2498L132.171 23.1045L132.332 22.3124H131.477L131.129 23.2498ZM128.277 23.2498L128.626 22.3124H127.626L127.277 23.2498H128.277ZM122.302 39.3442H121.302L120.954 40.2817H121.954L122.302 39.3442ZM124.505 39.3442L122.057 45.9358H124.057L126.505 39.3442H124.505ZM123.405 44.9983H106.003L105.307 46.8732H122.709L123.405 44.9983ZM106.655 45.9358L109.102 39.3442H107.102L104.655 45.9358H106.655ZM107.754 40.2817H110.957L111.654 38.4067H108.45L107.754 40.2817ZM112.306 39.3442L118.281 23.2498H116.281L110.306 39.3442H112.306ZM117.629 22.3124H114.876L114.179 24.1873H116.933L117.629 22.3124ZM113.594 23.1045L110.891 28.1214L112.759 28.4121L115.461 23.3952L113.594 23.1045ZM112.173 27.3293H106.685L105.988 29.2042H111.477L112.173 27.3293ZM107.337 28.2667L111.592 16.8048H109.592L105.337 28.2667H107.337ZM110.244 17.7422H139.483L140.179 15.8673H110.94L110.244 17.7422ZM138.831 16.8048L134.575 28.2667H136.575L140.831 16.8048H138.831ZM135.923 27.3293H130.454L129.758 29.2042H135.227L135.923 27.3293ZM131.148 28.1214L132.171 23.1045L130.087 23.3952L129.064 28.4121L131.148 28.1214ZM131.477 22.3124H128.626L127.929 24.1873H130.781L131.477 22.3124ZM127.277 23.2498L121.302 39.3442H123.302L129.277 23.2498H127.277ZM121.954 40.2817H125.157L125.853 38.4067H122.65L121.954 40.2817ZM151.642 39.4907H152.642L152.99 38.5532H151.99L151.642 39.4907ZM149.249 45.9358L148.901 46.8732H149.901L150.249 45.9358H149.249ZM133.018 45.9358H132.018L131.67 46.8732H132.67L133.018 45.9358ZM135.411 39.4907L135.759 38.5532H134.759L134.411 39.4907H135.411ZM138.536 39.4907L138.188 40.4282H139.188L139.536 39.4907H138.536ZM144.567 23.2498H145.567L145.915 22.3124H144.915L144.567 23.2498ZM141.442 23.2498H140.442L140.093 24.1873H141.093L141.442 23.2498ZM143.835 16.8048L144.183 15.8673H143.183L142.835 16.8048H143.835ZM160.065 16.8048H161.065L161.413 15.8673H160.413L160.065 16.8048ZM157.672 23.2498L157.324 24.1873H158.324L158.672 23.2498H157.672ZM154.567 23.2498L154.915 22.3124H153.915L153.567 23.2498H154.567ZM148.536 39.4907H147.536L147.188 40.4282H148.188L148.536 39.4907ZM150.642 39.4907L148.249 45.9358H150.249L152.642 39.4907H150.642ZM149.597 44.9983H133.366L132.67 46.8732H148.901L149.597 44.9983ZM134.018 45.9358L136.411 39.4907H134.411L132.018 45.9358H134.018ZM135.063 40.4282H138.188L138.884 38.5532H135.759L135.063 40.4282ZM139.536 39.4907L145.567 23.2498H143.567L137.536 39.4907H139.536ZM144.915 22.3124H141.79L141.093 24.1873H144.218L144.915 22.3124ZM142.442 23.2498L144.835 16.8048H142.835L140.442 23.2498H142.442ZM143.487 17.7422H159.717L160.413 15.8673H144.183L143.487 17.7422ZM159.065 16.8048L156.672 23.2498H158.672L161.065 16.8048H159.065ZM158.02 22.3124H154.915L154.218 24.1873H157.324L158.02 22.3124ZM153.567 23.2498L147.536 39.4907H149.536L155.567 23.2498H153.567ZM148.188 40.4282H151.294L151.99 38.5532H148.884L148.188 40.4282ZM187.927 39.3442H188.927L189.275 38.4067H188.275L187.927 39.3442ZM185.479 45.9358L185.131 46.8732H186.131L186.479 45.9358H185.479ZM168.077 45.9358H167.077L166.729 46.8732H167.729L168.077 45.9358ZM170.524 39.3442L170.872 38.4067H169.872L169.524 39.3442H170.524ZM173.727 39.3442L173.379 40.2817H174.379L174.727 39.3442H173.727ZM179.703 23.2498H180.703L181.051 22.3124H180.051L179.703 23.2498ZM176.949 23.2498L177.297 22.3124H176.442L176.015 23.1045L176.949 23.2498ZM174.247 28.2667L173.899 29.2042H174.754L175.181 28.4121L174.247 28.2667ZM168.758 28.2667H167.758L167.41 29.2042H168.41L168.758 28.2667ZM173.014 16.8048L173.362 15.8673H172.362L172.014 16.8048H173.014ZM202.253 16.8048H203.253L203.601 15.8673H202.601L202.253 16.8048ZM197.997 28.2667L197.649 29.2042H198.649L198.997 28.2667H197.997ZM192.528 28.2667L191.486 28.4121L191.325 29.2042H192.18L192.528 28.2667ZM193.551 23.2498L194.593 23.1045L194.754 22.3124H193.899L193.551 23.2498ZM190.699 23.2498L191.047 22.3124H190.047L189.699 23.2498H190.699ZM184.723 39.3442H183.723L183.375 40.2817H184.375L184.723 39.3442ZM186.927 39.3442L184.479 45.9358H186.479L188.927 39.3442H186.927ZM185.827 44.9983H168.425L167.729 46.8732H185.131L185.827 44.9983ZM169.077 45.9358L171.524 39.3442H169.524L167.077 45.9358H169.077ZM170.176 40.2817H173.379L174.075 38.4067H170.872L170.176 40.2817ZM174.727 39.3442L180.703 23.2498H178.703L172.727 39.3442H174.727ZM180.051 22.3124H177.297L176.601 24.1873H179.355L180.051 22.3124ZM176.015 23.1045L173.313 28.1214L175.181 28.4121L177.883 23.3952L176.015 23.1045ZM174.595 27.3293H169.107L168.41 29.2042H173.899L174.595 27.3293ZM169.758 28.2667L174.014 16.8048H172.014L167.758 28.2667H169.758ZM172.666 17.7422H201.904L202.601 15.8673H173.362L172.666 17.7422ZM201.253 16.8048L196.997 28.2667H198.997L203.253 16.8048H201.253ZM198.345 27.3293H192.876L192.18 29.2042H197.649L198.345 27.3293ZM193.57 28.1214L194.593 23.1045L192.509 23.3952L191.486 28.4121L193.57 28.1214ZM193.899 22.3124H191.047L190.351 24.1873H193.203L193.899 22.3124ZM189.699 23.2498L183.723 39.3442H185.723L191.699 23.2498H189.699ZM184.375 40.2817H187.579L188.275 38.4067H185.072L184.375 40.2817ZM211.671 45.9358L211.322 46.8732H212.322L212.671 45.9358H211.671ZM195.44 45.9358H194.44L194.092 46.8732H195.092L195.44 45.9358ZM197.833 39.4907L198.181 38.5532H197.181L196.833 39.4907H197.833ZM200.958 39.4907L200.61 40.4282H201.61L201.958 39.4907H200.958ZM206.988 23.2498H207.988L208.336 22.3124H207.336L206.988 23.2498ZM203.863 23.2498H202.863L202.515 24.1873H203.515L203.863 23.2498ZM206.256 16.8048L206.605 15.8673H205.605L205.256 16.8048H206.256ZM232.647 18.6358L231.73 19.3458L231.733 19.3484L232.647 18.6358ZM223.759 31.1597L223.923 30.2373L223.257 32.0854L223.759 31.1597ZM227.067 33.1372L226.057 33.6954L226.059 33.7011L227.067 33.1372ZM225.999 39.3808H224.999L224.651 40.3183H225.651L225.999 39.3808ZM230.354 39.3808H231.354L231.703 38.4434H230.703L230.354 39.3808ZM227.921 45.9358L227.572 46.8732H228.572L228.921 45.9358H227.921ZM218.437 45.8076L217.966 46.7376L217.973 46.7385L217.981 46.7393L218.437 45.8076ZM216.729 45.1484L215.83 45.8785L215.839 45.8874L215.848 45.896L216.729 45.1484ZM216.169 43.5005L215.11 43.8422L215.111 43.8438L216.169 43.5005ZM218.009 34.547L216.983 35.0671L216.986 35.0731L218.009 34.547ZM213.202 33.4484L213.55 32.511H212.55L212.202 33.4484H213.202ZM210.958 39.4907H209.958L209.61 40.4282H210.61L210.958 39.4907ZM214.064 39.4907H215.064L215.412 38.5532H214.412L214.064 39.4907ZM216.988 23.2498L217.336 22.3124H216.336L215.988 23.2498H216.988ZM214.745 29.2921H213.745L213.397 30.2296H214.397L214.745 29.2921ZM222.51 24.0006L221.628 24.7472L221.634 24.7522L222.51 24.0006ZM212.019 44.9983H195.788L195.092 46.8732H211.322L212.019 44.9983ZM196.44 45.9358L198.833 39.4907H196.833L194.44 45.9358H196.44ZM197.485 40.4282H200.61L201.306 38.5532H198.181L197.485 40.4282ZM201.958 39.4907L207.988 23.2498H205.988L199.958 39.4907H201.958ZM207.336 22.3124H204.211L203.515 24.1873H206.64L207.336 22.3124ZM204.863 23.2498L207.256 16.8048H205.256L202.863 23.2498H204.863ZM205.908 17.7422H225.869L226.565 15.8673H206.605L205.908 17.7422ZM225.869 17.7422C228.998 17.7422 230.858 18.3391 231.73 19.3458L233.564 17.9257C232.321 16.4912 229.895 15.8673 226.565 15.8673L225.869 17.7422ZM231.733 19.3484C232.581 20.3163 232.677 22.0162 231.675 24.7146H233.675C234.776 21.7492 234.853 19.3965 233.561 17.9231L231.733 19.3484ZM231.675 24.7146C231.039 26.4278 230.091 27.6139 228.907 28.4163L229.795 29.7651C231.638 28.5168 232.906 26.7855 233.675 24.7146H231.675ZM228.907 28.4163C227.638 29.2755 226 29.9052 223.923 30.2373L223.594 32.0821C225.946 31.7062 228.036 30.9565 229.795 29.7651L228.907 28.4163ZM223.257 32.0854C224.878 32.3424 225.731 32.9194 226.057 33.6954L228.078 32.579C227.533 31.2798 226.181 30.5385 224.26 30.234L223.257 32.0854ZM226.059 33.7011C226.424 34.5464 226.391 35.6315 225.876 37.0189H227.876C228.512 35.3058 228.607 33.8031 228.075 32.5733L226.059 33.7011ZM225.876 37.0189L224.999 39.3808H226.999L227.876 37.0189H225.876ZM225.651 40.3183H230.006L230.703 38.4434H226.347L225.651 40.3183ZM229.354 39.3808L226.921 45.9358H228.921L231.354 39.3808H229.354ZM228.269 44.9983H221.98L221.283 46.8732H227.572L228.269 44.9983ZM221.98 44.9983C220.656 44.9983 219.632 44.9559 218.893 44.8759L217.981 46.7393C218.819 46.8302 219.925 46.8732 221.283 46.8732L221.98 44.9983ZM218.908 44.8776C218.231 44.7933 217.831 44.6139 217.61 44.4009L215.848 45.896C216.336 46.3665 217.074 46.6266 217.966 46.7376L218.908 44.8776ZM217.627 44.4184C217.419 44.2004 217.258 43.8103 217.227 43.1573L215.111 43.8438C215.151 44.68 215.363 45.3885 215.83 45.8785L217.627 44.4184ZM217.227 43.1589C217.183 42.2121 217.582 40.492 218.553 37.8794H216.553C215.574 40.5157 215.051 42.543 215.11 43.8422L217.227 43.1589ZM218.553 37.8794C219.135 36.3111 219.367 34.9728 219.032 34.021L216.986 35.0731C217.157 35.5616 217.085 36.4449 216.553 37.8794H218.553ZM219.034 34.027C218.659 32.9257 217.46 32.511 215.913 32.511L215.217 34.3859C216.43 34.3859 216.86 34.7036 216.983 35.067L219.034 34.027ZM215.913 32.511H213.55L212.854 34.3859H215.217L215.913 32.511ZM212.202 33.4484L209.958 39.4907H211.958L214.202 33.4484H212.202ZM210.61 40.4282H213.716L214.412 38.5532H211.306L210.61 40.4282ZM213.064 39.4907L210.671 45.9358H212.671L215.064 39.4907H213.064ZM215.988 23.2498L213.745 29.2921H215.745L217.988 23.2498H215.988ZM214.397 30.2296H217.073L217.769 28.3546H215.093L214.397 30.2296ZM217.073 30.2296C218.578 30.2296 219.979 29.9829 221.162 29.3331L220.538 27.8229C219.987 28.1252 219.102 28.3546 217.769 28.3546L217.073 30.2296ZM221.162 29.3331C222.486 28.6063 223.318 27.4118 223.816 26.0696H221.816C221.426 27.1199 220.948 27.5976 220.538 27.8229L221.162 29.3331ZM223.816 26.0696C224.246 24.9118 224.116 23.9364 223.387 23.2489L221.634 24.7522C221.966 25.0657 222.039 25.4696 221.816 26.0696H223.816ZM223.392 23.2539C222.716 22.5998 221.682 22.3124 220.403 22.3124L219.707 24.1873C220.667 24.1873 221.27 24.4004 221.629 24.7472L223.392 23.2539ZM220.403 22.3124H217.336L216.64 24.1873H219.707L220.403 22.3124ZM244.415 39.4907H245.415L245.763 38.5532H244.763L244.415 39.4907ZM242.022 45.9358L241.674 46.8732H242.674L243.022 45.9358H242.022ZM228.311 45.9358H227.311L226.963 46.8732H227.963L228.311 45.9358ZM230.704 39.4907L231.052 38.5532H230.052L229.704 39.4907H230.704ZM233.79 39.4907L233.442 40.4282H234.18L234.643 39.7674L233.79 39.4907ZM245.172 23.2498L246.025 23.5265L246.876 22.3124H245.52L245.172 23.2498ZM241.09 23.2498H240.09L239.742 24.1873H240.742L241.09 23.2498ZM243.483 16.8048L243.831 15.8673H242.831L242.483 16.8048H243.483ZM262.838 16.8048L263.896 16.5466L263.94 15.8673H263.187L262.838 16.8048ZM261.349 39.4907L260.292 39.7489L260.247 40.4282H261.001L261.349 39.4907ZM264.415 39.4907H265.415L265.763 38.5532H264.763L264.415 39.4907ZM262.022 45.9358L261.674 46.8732H262.674L263.022 45.9358H262.022ZM244.542 45.9358H243.542L243.194 46.8732H244.194L244.542 45.9358ZM246.935 39.4907L247.283 38.5532H246.283L245.935 39.4907H246.935ZM249.474 39.4907L249.126 40.4282H250.41L250.529 39.2608L249.474 39.4907ZM249.79 36.378L250.845 36.1481L250.916 35.4405H250.138L249.79 36.378ZM242.739 36.378L243.087 35.4405H242.317L241.861 36.1381L242.739 36.378ZM240.704 39.4907L239.827 39.2508L239.057 40.4282H240.356L240.704 39.4907ZM250.497 31.947L250.149 32.8845H251.416L251.551 31.7298L250.497 31.947ZM251.543 23.0301L252.596 22.8129L252.994 19.4197L250.685 22.7609L251.543 23.0301ZM245.38 31.947L244.522 31.6778L243.688 32.8845H245.032L245.38 31.947ZM243.415 39.4907L241.022 45.9358H243.022L245.415 39.4907H243.415ZM242.37 44.9983H228.659L227.963 46.8732H241.674L242.37 44.9983ZM229.311 45.9358L231.704 39.4907H229.704L227.311 45.9358H229.311ZM230.356 40.4282H233.442L234.138 38.5532H231.052L230.356 40.4282ZM234.643 39.7674L246.025 23.5265L244.319 22.9732L232.937 39.214L234.643 39.7674ZM245.52 22.3124H241.438L240.742 24.1873H244.824L245.52 22.3124ZM242.09 23.2498L244.483 16.8048H242.483L240.09 23.2498H242.09ZM243.135 17.7422H262.49L263.187 15.8673H243.831L243.135 17.7422ZM261.781 17.063L260.292 39.7489L262.406 39.2325L263.896 16.5466L261.781 17.063ZM261.001 40.4282H264.067L264.763 38.5532H261.697L261.001 40.4282ZM263.415 39.4907L261.022 45.9358H263.022L265.415 39.4907H263.415ZM262.37 44.9983H244.89L244.194 46.8732H261.674L262.37 44.9983ZM245.542 45.9358L247.935 39.4907H245.935L243.542 45.9358H245.542ZM246.587 40.4282H249.126L249.822 38.5532H247.283L246.587 40.4282ZM250.529 39.2608L250.845 36.1481L248.735 36.6079L248.419 39.7206L250.529 39.2608ZM250.138 35.4405H243.087L242.391 37.3155H249.442L250.138 35.4405ZM241.861 36.1381L239.827 39.2508L241.582 39.7306L243.617 36.6179L241.861 36.1381ZM240.356 40.4282H244.067L244.763 38.5532H241.052L240.356 40.4282ZM251.551 31.7298L252.596 22.8129L250.489 23.2474L249.444 32.1642L251.551 31.7298ZM250.685 22.7609L244.522 31.6778L246.238 32.2162L252.401 23.2993L250.685 22.7609ZM245.032 32.8845H250.149L250.845 31.0096H245.728L245.032 32.8845ZM278.518 39.3808H279.518L279.867 38.4434H278.867L278.518 39.3808ZM276.085 45.9358L275.737 46.8732H276.737L277.085 45.9358H276.085ZM263.643 45.9358H262.643L262.295 46.8732H263.295L263.643 45.9358ZM266.077 39.3808L266.425 38.4434H265.425L265.077 39.3808H266.077ZM269.241 39.3808L268.893 40.3183H269.893L270.241 39.3808H269.241ZM275.244 23.2132H276.244L276.592 22.2758H275.592L275.244 23.2132ZM272.158 23.2132H271.158L270.81 24.1507H271.81L272.158 23.2132ZM274.551 16.7682L274.899 15.8307H273.899L273.551 16.7682H274.551ZM288.907 16.7682L289.954 16.3315L289.859 15.8307H289.255L288.907 16.7682ZM292.202 34.0893L291.155 34.526L293.202 34.0893H292.202ZM296.227 23.2498H297.227L297.575 22.3124H296.575L296.227 23.2498ZM293.102 23.2498H292.102L291.754 24.1873H292.754L293.102 23.2498ZM295.495 16.8048L295.843 15.8673H294.843L294.495 16.8048H295.495ZM307.936 16.8048H308.936L309.284 15.8673H308.284L307.936 16.8048ZM305.543 23.2498L305.195 24.1873H306.195L306.543 23.2498H305.543ZM302.457 23.2498L302.805 22.3124H301.805L301.457 23.2498H302.457ZM294.034 45.9358L293.686 46.8732H294.686L295.034 45.9358H294.034ZM282.198 45.9358L281.152 46.38L281.252 46.8732H281.85L282.198 45.9358ZM278.935 29.8414L279.981 29.3972L277.935 29.8414H278.935ZM275.393 39.3808H274.393L274.045 40.3183H275.045L275.393 39.3808ZM277.518 39.3808L275.085 45.9358H277.085L279.518 39.3808H277.518ZM276.433 44.9983H263.991L263.295 46.8732H275.737L276.433 44.9983ZM264.643 45.9358L267.077 39.3808H265.077L262.643 45.9358H264.643ZM265.729 40.3183H268.893L269.589 38.4434H266.425L265.729 40.3183ZM270.241 39.3808L276.244 23.2132H274.244L268.241 39.3808H270.241ZM275.592 22.2758H272.506L271.81 24.1507H274.896L275.592 22.2758ZM273.158 23.2132L275.551 16.7682H273.551L271.158 23.2132H273.158ZM274.203 17.7056H288.559L289.255 15.8307H274.899L274.203 17.7056ZM287.86 17.2049L291.155 34.526L293.249 33.6526L289.954 16.3315L287.86 17.2049ZM293.202 34.0893L297.227 23.2498H295.227L291.202 34.0893H293.202ZM296.575 22.3124H293.45L292.754 24.1873H295.879L296.575 22.3124ZM294.102 23.2498L296.495 16.8048H294.495L292.102 23.2498H294.102ZM295.147 17.7422H307.588L308.284 15.8673H295.843L295.147 17.7422ZM306.936 16.8048L304.543 23.2498H306.543L308.936 16.8048H306.936ZM305.891 22.3124H302.805L302.109 24.1873H305.195L305.891 22.3124ZM301.457 23.2498L293.034 45.9358H295.034L303.457 23.2498H301.457ZM294.382 44.9983H282.546L281.85 46.8732H293.686L294.382 44.9983ZM283.243 45.4915L279.981 29.3972L277.89 30.2856L281.152 46.38L283.243 45.4915ZM277.935 29.8414L274.393 39.3808H276.393L279.935 29.8414H277.935ZM275.045 40.3183H278.17L278.867 38.4434H275.742L275.045 40.3183ZM309.652 45.5329L308.865 46.354L308.871 46.3578L309.652 45.5329ZM308.077 44.2513L308.962 43.5077L308.181 42.7405L307.266 43.9179L308.077 44.2513ZM306.768 45.9358L306.42 46.8732H307.11L307.579 46.2691L306.768 45.9358ZM300.46 45.9358H299.46L299.112 46.8732H300.112L300.46 45.9358ZM303.77 37.0189L304.119 36.0814H303.119L302.77 37.0189H303.77ZM310.04 37.0189L311.099 36.6943L311.085 36.0814H310.388L310.04 37.0189ZM311.086 39.1977L310.301 40.0202L310.308 40.0244L310.315 40.0284L311.086 39.1977ZM316.051 39.3991L316.236 40.2167L316.246 40.2125L316.256 40.2082L316.051 39.3991ZM316.956 36.909L316.145 37.7146L316.151 37.7188L316.157 37.7229L316.956 36.909ZM314.964 36.0667L315.566 35.1631L315.559 35.1612L314.964 36.0667ZM311.9 35.0597L311.226 35.9384L311.229 35.9397L311.9 35.0597ZM309.574 33.9611L308.815 34.7996L309.574 33.9611ZM310.411 20.5034L311.108 20.9661L311.111 20.9637L310.411 20.5034ZM315.05 17.3724L315.207 18.2021L315.21 18.2007L315.05 17.3724ZM325.963 18.4893L324.989 19.1205L325.574 20.0958L326.676 18.9364L325.963 18.4893ZM327.598 16.7682L327.946 15.8307H327.351L326.885 16.3211L327.598 16.7682ZM333.204 16.7682H334.204L334.552 15.8307H333.552L333.204 16.7682ZM329.961 25.502L329.613 26.4394H330.613L330.961 25.502H329.961ZM323.965 25.502L322.912 25.9061L322.986 26.4394H323.617L323.965 25.502ZM318.144 23.0301L318.384 23.8227L318.393 23.8181L318.403 23.8133L318.144 23.0301ZM317.524 25.5935L318.272 24.7489L318.264 24.7444L318.255 24.7401L317.524 25.5935ZM320.206 26.4724L320.768 25.5585L320.761 25.5568L320.206 26.4724ZM325.418 28.3217L326.172 27.4805L326.164 27.4766L325.418 28.3217ZM328.109 31.4893L327.083 32.0061L327.085 32.0141L328.109 31.4893ZM324.576 41.6879L325.302 42.1208L325.307 42.1154L324.576 41.6879ZM319.781 45.1851L319.563 44.3824L319.559 44.3843L319.781 45.1851ZM314.497 45.5293C313.474 45.5293 312.66 45.4587 312.04 45.329L310.953 47.165C311.734 47.3283 312.689 47.4042 313.801 47.4042L314.497 45.5293ZM312.04 45.329C311.424 45.2002 310.89 44.9925 310.434 44.7081L308.871 46.3578C309.472 46.7325 310.168 47.0009 310.953 47.165L312.04 45.329ZM310.44 44.7119C309.968 44.4101 309.475 44.0109 308.962 43.5077L307.192 44.9948C307.749 45.5414 308.306 45.9966 308.865 46.354L310.44 44.7119ZM307.266 43.9179L305.957 45.6024L307.579 46.2691L308.888 44.5846L307.266 43.9179ZM307.116 44.9983H300.808L300.112 46.8732H306.42L307.116 44.9983ZM301.46 45.9358L304.77 37.0189H302.77L299.46 45.9358H301.46ZM303.422 37.9563H309.692L310.388 36.0814H304.119L303.422 37.9563ZM308.981 37.3434C309.008 38.5309 309.418 39.4611 310.301 40.0202L311.872 38.3752C311.405 38.0799 311.118 37.5575 311.099 36.6943L308.981 37.3434ZM310.315 40.0284C311.152 40.5305 312.271 40.7577 313.613 40.7577L314.309 38.8828C313.202 38.8828 312.405 38.695 311.858 38.367L310.315 40.0284ZM313.613 40.7577C314.5 40.7577 315.382 40.5925 316.236 40.2167L315.865 38.5815C315.443 38.7673 314.932 38.8828 314.309 38.8828L313.613 40.7577ZM316.256 40.2082C317.173 39.79 317.951 39.1317 318.28 38.2456H316.28C316.255 38.3116 316.214 38.4223 315.846 38.5901L316.256 40.2082ZM318.28 38.2456C318.625 37.3165 318.446 36.5576 317.754 36.0951L316.157 37.7229C316.342 37.8463 316.379 37.9785 316.28 38.2456H318.28ZM317.766 36.1034C317.247 35.7375 316.497 35.4299 315.566 35.1631L314.362 36.9703C315.22 37.2162 315.798 37.4701 316.145 37.7146L317.766 36.1034ZM315.559 35.1612C314.435 34.8498 313.44 34.5223 312.572 34.1797L311.229 35.9397C312.155 36.3051 313.202 36.6489 314.369 36.9722L315.559 35.1612ZM312.575 34.181C311.715 33.8365 310.968 33.4833 310.332 33.1226L308.815 34.7996C309.513 35.1957 310.318 35.5749 311.226 35.9384L312.575 34.181ZM310.332 33.1226C309.126 32.4379 308.315 31.4727 307.889 30.2186L305.839 31.2586C306.359 32.7876 307.355 33.9707 308.815 34.7996L310.332 33.1226ZM307.889 30.2186C307.485 29.0292 307.627 27.3807 308.44 25.1907H306.44C305.54 27.6148 305.297 29.6648 305.839 31.2586L307.889 30.2186ZM308.44 25.1907C309.045 23.5605 309.941 22.1617 311.108 20.9661L309.713 20.0406C308.234 21.5549 307.149 23.281 306.44 25.1907H308.44ZM311.111 20.9637C312.258 19.7843 313.614 18.8661 315.207 18.2021L314.892 16.5427C312.912 17.3679 311.175 18.537 309.71 20.0431L311.111 20.9637ZM315.21 18.2007C316.814 17.5282 318.569 17.1746 320.494 17.1746L321.19 15.2997C319.001 15.2997 316.894 15.703 314.889 16.544L315.21 18.2007ZM320.494 17.1746C322.775 17.1746 324.225 17.846 324.989 19.1205L326.937 17.8581C325.9 16.1297 323.935 15.2997 321.19 15.2997L320.494 17.1746ZM326.676 18.9364L328.311 17.2152L326.885 16.3211L325.25 18.0422L326.676 18.9364ZM327.25 17.7056H332.856L333.552 15.8307H327.946L327.25 17.7056ZM332.204 16.7682L328.961 25.502H330.961L334.204 16.7682H332.204ZM330.309 24.5645H324.313L323.617 26.4394H329.613L330.309 24.5645ZM325.017 25.0978C324.855 23.9291 324.486 22.9961 323.806 22.4355L322.112 23.9909C322.469 24.2848 322.77 24.8777 322.912 25.9061L325.017 25.0978ZM323.806 22.4355C323.116 21.867 322.05 21.6349 320.752 21.6349L320.056 23.5098C321.127 23.5098 321.765 23.705 322.112 23.9909L323.806 22.4355ZM320.752 21.6349C319.753 21.6349 318.773 21.8016 317.885 22.247L318.403 23.8133C318.732 23.6483 319.259 23.5098 320.056 23.5098L320.752 21.6349ZM317.905 22.2375C316.966 22.6928 316.267 23.3932 315.947 24.2569H317.947C318.016 24.0709 318.115 23.9533 318.384 23.8227L317.905 22.2375ZM315.947 24.2569C315.766 24.7424 315.749 25.2007 315.92 25.5946C316.085 25.9762 316.404 26.2497 316.794 26.4469L318.255 24.7401C318.042 24.6322 317.964 24.5303 317.936 24.4664C317.914 24.4147 317.909 24.3573 317.947 24.2569H315.947ZM316.777 26.4382C317.447 26.8015 318.421 27.1131 319.651 27.388L320.761 25.5568C319.587 25.2946 318.772 25.0202 318.272 24.7489L316.777 26.4382ZM319.644 27.3863C321.692 27.863 323.362 28.4592 324.671 29.1667L326.164 27.4766C324.719 26.6949 322.915 26.0583 320.768 25.5585L319.644 27.3863ZM324.664 29.1629C325.874 29.8362 326.674 30.7821 327.083 32.0061L329.135 30.9725C328.631 29.4622 327.638 28.2963 326.171 27.4805L324.664 29.1629ZM327.085 32.0141C327.49 33.1722 327.372 34.725 326.622 36.7442H328.622C329.468 34.4667 329.675 32.5163 329.132 30.9644L327.085 32.0141ZM326.622 36.7442C325.997 38.4288 325.068 39.928 323.845 41.2604L325.307 42.1154C326.796 40.4937 327.897 38.6971 328.622 36.7442H326.622ZM323.85 41.2549C322.622 42.5803 321.199 43.6176 319.563 44.3824L320 45.9877C322.019 45.0436 323.793 43.7495 325.302 42.1208L323.85 41.2549ZM319.559 44.3843C317.954 45.14 316.274 45.5293 314.497 45.5293L313.801 47.4042C315.904 47.4042 317.98 46.939 320.004 45.9858L319.559 44.3843Z" fill="#0033A0"/>
<path d="M1 38L351 37" stroke="black" stroke-linecap="round"/>
<path d="M1 26L351 25" stroke="black" stroke-linecap="round"/>
</svg>
