<svg width="169" height="32" viewBox="0 0 169 32" fill="none" xmlns="http://www.w3.org/2000/svg">
<path d="M0.52 7.92C0.52 5.76 1.08 4.13333 2.2 3.04C3.32 1.94667 4.65333 1.4 6.2 1.4C7.77333 1.4 9.90667 1.66667 12.6 2.2C15.2933 2.73333 17.32 3.01333 18.68 3.04C20.9467 2.61333 23.1067 2.09333 25.16 1.48C25.3733 2.17333 25.48 3.04 25.48 4.08C25.48 6.24 24.8533 7.86667 23.6 8.96C22.3733 10.0533 20.8 10.6 18.88 10.6C18.4 10.6 17.76 10.5733 16.96 10.52C15.4933 18.2267 14.76 22.5333 14.76 23.44C14.76 26.0267 15.16 27.96 15.96 29.24C14.36 30.44 12.6933 31.04 10.96 31.04C9.22667 31.04 7.98667 30.5467 7.24 29.56C6.49333 28.5467 6.12 27.0533 6.12 25.08C6.12 23.08 6.89333 17.7733 8.44 9.16C5.42667 9.56 2.89333 10.0133 0.84 10.52C0.626667 9.85333 0.52 8.98667 0.52 7.92ZM40.8691 24.44L39.4691 20.4C38.0824 20.4 36.6824 20.1867 35.2691 19.76C34.9757 21.4667 34.8291 22.6933 34.8291 23.44C34.8291 26.0267 35.2291 27.96 36.0291 29.24C34.4291 30.44 32.7624 31.04 31.0291 31.04C29.2957 31.04 28.0557 30.5467 27.3091 29.56C26.5624 28.5467 26.1891 27.0533 26.1891 25.08C26.1891 23.08 27.0291 17.44 28.7091 8.16L26.5891 3.88C29.5757 1.96 32.3224 0.999999 34.8291 0.999999C36.7491 0.999999 38.2291 1.4 39.2691 2.2C41.2691 1.4 43.0691 0.999999 44.6691 0.999999C47.1224 0.999999 49.0691 1.82667 50.5091 3.48C51.9491 5.13333 52.6691 7.12 52.6691 9.44C52.6691 11.1733 52.2291 12.8533 51.3491 14.48C50.4691 16.08 49.1757 17.3867 47.4691 18.4C48.3757 20.9867 49.3891 23.2133 50.5091 25.08C51.6557 26.9467 52.7891 28.1867 53.9091 28.8C53.3491 29.3867 52.4824 29.8933 51.3091 30.32C50.1624 30.7733 49.1224 31 48.1891 31C46.3757 31 44.9224 30.5467 43.8291 29.64C42.7357 28.7067 41.7491 26.9733 40.8691 24.44ZM37.0291 15.4C39.1624 15.4 40.8157 14.8533 41.9891 13.76C43.1891 12.6667 43.7891 11.4933 43.7891 10.24C43.7891 8.98667 43.4424 7.98667 42.7491 7.24C42.0557 6.49333 41.0691 6.12 39.7891 6.12C39.0957 6.12 38.4024 6.21333 37.7091 6.4C36.8557 11.4933 36.3224 14.48 36.1091 15.36C36.2957 15.3867 36.6024 15.4 37.0291 15.4ZM78.525 6.88L78.205 16.4C78.205 19.68 78.4717 22.44 79.005 24.68C79.565 26.92 80.5917 28.4667 82.085 29.32C80.245 30.4667 78.3783 31.04 76.485 31.04C73.1517 31.04 71.0983 28.3467 70.325 22.96H62.165C61.6583 24.6933 61.405 26.0267 61.405 26.96C61.405 27.8667 61.5117 28.6 61.725 29.16C59.7517 30.4133 57.9917 31.04 56.445 31.04C54.0717 31.04 52.885 29.6 52.885 26.72C52.885 25.28 53.325 23.4667 54.205 21.28C55.1117 19.0933 56.2983 16.5867 57.765 13.76C59.2583 10.9333 60.205 9.06667 60.605 8.16C60.3117 6.72 59.9783 5.30667 59.605 3.92C60.9917 2.96 62.325 2.24 63.605 1.76C64.9117 1.25333 66.3117 0.999999 67.805 0.999999C69.325 0.999999 70.3783 1.33333 70.965 2C72.485 1.33333 73.7383 0.999999 74.725 0.999999C75.7117 0.999999 76.445 1.16 76.925 1.48C77.405 1.8 77.7517 2.26667 77.965 2.88C78.3383 3.94667 78.525 5.28 78.525 6.88ZM70.485 7.8H69.205C66.805 12.44 65.0183 16.0933 63.845 18.76H70.045C70.045 15.8533 70.1917 12.2 70.485 7.8ZM98.8256 0.999999C102.346 0.999999 104.986 1.41333 106.746 2.24C108.506 3.04 109.386 4.33333 109.386 6.12C109.386 7.88 108.839 9.22667 107.746 10.16C106.679 11.0667 105.452 11.52 104.066 11.52C102.679 11.52 101.426 11.1733 100.306 10.48C99.2123 9.76 98.4523 8.81333 98.0256 7.64C97.039 7.64 96.0923 7.97333 95.1856 8.64C94.3056 9.28 93.7456 10.12 93.5056 11.16C98.7856 12.44 102.572 13.9333 104.866 15.64C107.159 17.3467 108.306 19.5333 108.306 22.2C108.306 24.8667 107.092 27 104.666 28.6C102.266 30.2 99.0123 31 94.9056 31C90.8256 31 87.9323 30.44 86.2256 29.32C84.519 28.2 83.6656 26.72 83.6656 24.88C83.6656 23.04 84.239 21.3467 85.3856 19.8C85.9456 21 87.0123 22.08 88.5856 23.04C90.1856 24 91.759 24.48 93.3056 24.48C96.159 24.48 97.9723 23.5733 98.7456 21.76C94.319 21.1733 90.9456 19.9467 88.6256 18.08C86.3056 16.1867 85.1456 13.9067 85.1456 11.24C85.1456 9.45333 85.6256 7.86667 86.5856 6.48C87.5456 5.06667 88.7723 3.98667 90.2656 3.24C93.199 1.74667 96.0523 0.999999 98.8256 0.999999ZM117.045 31.04C115.311 31.04 114.071 30.5467 113.325 29.56C112.578 28.5467 112.205 27.0533 112.205 25.08C112.205 23.08 113.045 17.44 114.725 8.16L112.605 3.88C115.618 1.93333 118.365 0.96 120.845 0.96C122.898 0.96 123.925 2.21333 123.925 4.72C123.925 5.46667 123.365 8.74667 122.245 14.56L124.125 13C128.018 9.74667 129.965 6.97333 129.965 4.68C129.965 3.98667 129.858 3.36 129.645 2.8C131.618 1.6 133.485 0.999999 135.245 0.999999C137.858 0.999999 139.165 2.33333 139.165 5C139.165 7.98667 136.511 11.0133 131.205 14.08C133.685 22.0267 136.365 26.9333 139.245 28.8C138.658 29.3867 137.778 29.8933 136.605 30.32C135.458 30.7733 134.431 31 133.525 31C131.711 31 130.258 30.5333 129.165 29.6C128.071 28.6667 127.085 26.9467 126.205 24.44L123.885 17.92L121.405 19.24C121.031 21.4267 120.845 22.8267 120.845 23.44C120.845 26.0267 121.245 27.96 122.045 29.24C120.445 30.44 118.778 31.04 117.045 31.04ZM139.594 17.76C139.594 12.6933 141.007 8.64 143.834 5.6C146.66 2.53333 150.527 0.999999 155.434 0.999999C157.007 0.999999 158.127 1.32 158.794 1.96C159.487 2.57333 159.834 3.53333 159.834 4.84C159.834 5.02667 159.807 5.38666 159.754 5.92C160.74 5.12 161.834 4.72 163.034 4.72C164.66 4.72 166.047 5.45333 167.194 6.92C168.367 8.36 168.954 10.4533 168.954 13.2C168.954 15.9467 168.514 18.4667 167.634 20.76C166.754 23.0533 165.58 24.9333 164.114 26.4C162.674 27.8667 161.02 29 159.154 29.8C157.314 30.6 155.407 31 153.434 31C149.167 31 145.794 29.7867 143.314 27.36C140.834 24.9067 139.594 21.7067 139.594 17.76ZM159.554 19.64C157.847 17.56 156.994 15.32 156.994 12.92C156.994 10.52 157.527 8.58667 158.594 7.12C158.114 7.04 157.634 7 157.154 7C155.26 7 153.62 7.57333 152.234 8.72C149.62 10.8533 148.314 13.8133 148.314 17.6C148.314 19.76 148.794 21.56 149.754 23C150.714 24.44 152.047 25.16 153.754 25.16C155.06 25.16 156.247 24.6533 157.314 23.64C158.407 22.6 159.154 21.2667 159.554 19.64Z" fill="#0033A0"/>
</svg>
